<svg id="a3eb7d42-94ff-4aea-af8d-4658a1756c4f" data-name="Layer 1" xmlns="http://www.w3.org/2000/svg" width="865.76" height="682.89" viewBox="0 0 865.76 682.89"><g id="a929a957-a1e3-4de8-b162-038b23fa05af" data-name="freepik--background-simple--inject-6"><path d="M819.5,243.45s-17-122.15-138.74-197.59-178-.35-239.13,31S347.26,65,245.14,44.66,54.56,226.68,83.5,384.76s92.74,214.36,232.28,250.29S537.86,552.46,636.56,574,852.68,474.58,819.5,243.45Z" fill="#0071f2"/><path d="M819.5,243.45s-17-122.15-138.74-197.59-178-.35-239.13,31S347.26,65,245.14,44.66,54.56,226.68,83.5,384.76s92.74,214.36,232.28,250.29S537.86,552.46,636.56,574,852.68,474.58,819.5,243.45Z" fill="#fff" opacity="0.8" style="isolation:isolate"/></g><g id="ac285807-cecc-471f-9dc8-2616a6bbdd22" data-name="freepik--background-complete--inject-56"><path d="M294.59,160.2l-34.34-34.34a5.64,5.64,0,0,0-8,0h0L217.94,160.2l-2.05-2.06,34.34-34.34a8.53,8.53,0,0,1,12,0l0,0,34.34,34.34Z" fill="#e0e0e0"/><rect x="128.66" y="147.74" width="255.35" height="161.32" fill="#fafafa"/><path d="M384,150.82H128.66a3.15,3.15,0,0,1-3.13-3.14h0a3.15,3.15,0,0,1,3.13-3.13H384a3.14,3.14,0,0,1,3.14,3.13h0A3.14,3.14,0,0,1,384,150.82Z" fill="#ebebeb"/><path d="M384,312.21H128.66a3.15,3.15,0,0,1-3.13-3.13h0a3.15,3.15,0,0,1,3.13-3.14H384a3.14,3.14,0,0,1,3.14,3.14h0A3.14,3.14,0,0,1,384,312.21Z" fill="#ebebeb"/><path d="M168,203a2.88,2.88,0,0,1-2,1.82,6.36,6.36,0,0,1-2.81.18c-.55-.17-1-1.1-1-2.1a3,3,0,0,1,2-2.48,2.42,2.42,0,0,0,1.36-3c-.38-1.24,1.34-2.81,3.82-3.45a127.14,127.14,0,0,1,14.72-2.88c2.58-.38,5.25-1.5,5.9-2.6s3.27-2.39,6-2.78l1.92-.28c2.66-.37,4.52.72,4.12,2.32a11.47,11.47,0,0,1-3.16,5c-1.32,1.15-1.64,2.36-.59,2.7s2.08.25,2.42-.28a10.83,10.83,0,0,1,3.76-2.14,3.29,3.29,0,0,1,4.16.93c.54,1.2,1.47,2.11,2.07,2s1.11,1.64,1.11,3.78-2.2,3.81-4.9,3.73h-.77c-2.67,0-4.68.88-4.48,2.09s-1.5,3.7-3.76,5.51l-.23.2c-2.26,1.8-4.09,4.05-4.09,5.07s-.32,1.88-.72,1.89-1.21-.63-1.8-1.45a3.26,3.26,0,0,0-3.56-.51,6.61,6.61,0,0,0-3.27,2.9,1.76,1.76,0,0,0,.65,2.41l.07,0a2.38,2.38,0,0,1,1.54,2,2.23,2.23,0,0,0,1.76,1.86,2.58,2.58,0,0,1,1.91,1.92c0,.78,2.28,1.44,4.91,1.45h1.16c2.67,0,5.45.79,6.18,1.64a4.72,4.72,0,0,0,3.06,1.73,1.63,1.63,0,0,1,1.63,1.64c0,.86,1.26,1.79,2.82,2.09s3.82,2.52,5.05,5,1.28,5.61.11,6.9a8.12,8.12,0,0,0-1.63,5.73,9.16,9.16,0,0,1-3.27,6.77c-1.24,1.09-1.85,1.63-3.09,2.66a12.15,12.15,0,0,0-3.83,7.82c0,2.6.54,5.25,1.34,5.9a3.38,3.38,0,0,1,.74,3.42c-.41,1.22-2.06,1.06-3.66-.35a6.52,6.52,0,0,1-2.54-4.79,4.52,4.52,0,0,0-.85-3.48c-.67-.69-1.21-3.7-1.21-6.69v-5.92c0-3-1.14-6.32-2.52-7.4a4.23,4.23,0,0,1-1.8-4.09,5.53,5.53,0,0,0-1.55-4.65,8.34,8.34,0,0,1-2.27-4.61c0-1.19.42-2.27.95-2.38a2.72,2.72,0,0,0,1.44-1.77,2.77,2.77,0,0,0-.25-2.35,1.62,1.62,0,0,0-1.9,0c-.65.4-1.29-.09-1.42-1.07a3.05,3.05,0,0,0-1.9-2.3c-.91-.28-1.63-.79-1.63-1.13s-1.91-1.11-4.24-1.64-3.85-1.63-3.48-2.5-.29-2.45-1.5-3.5a8.53,8.53,0,0,1-1.77-6.42v-.69c.25-2.54,1-4.79,1.64-4.91a2.84,2.84,0,0,0,1.5-2.38,5.49,5.49,0,0,0-.82-3.42,4.87,4.87,0,0,0-4.25-.7C169.68,201.29,168.16,202.23,168,203Z" fill="#e0e0e0"/><path d="M212.34,192.06a7.07,7.07,0,0,0-4.3-2.54c-1.34-.1-2.22-1-2-2.09a7.55,7.55,0,0,0-.6-4.27,11.55,11.55,0,0,1-1.1-3.86c0-.85,2.11-2.75,4.71-4.18l4-2.24a10,10,0,0,1,9-.09l.24.15a11.3,11.3,0,0,1,4.91,6.21,6,6,0,0,1-2.87,5.63,15.93,15.93,0,0,0-5.34,6.31c-1,2.32-2.52,4-3.27,3.78A9.21,9.21,0,0,1,212.34,192.06Z" fill="#e0e0e0"/><path d="M347.93,202.37c1.8-.39,2.89-1.27,2.47-2.09s-2.78-2-5.27-2.52h-.27a11.23,11.23,0,0,1-5.92-2.88,19.37,19.37,0,0,0-6-4.38l-2.68-1.32a28,28,0,0,0-9.36-2.52h-1.11a10.49,10.49,0,0,1-7.26-3.37,14.43,14.43,0,0,0-7.44-4.45c-3.27-.67-4.9-1-8.08-1.63-2.73-.46-5.87-.2-7,.57a4.39,4.39,0,0,0-2,2.75c0,.75-1.18,1.63-2.62,2s-2.79.23-3-.3-2-1.11-3.88-1.27l-4.76-.35a28.75,28.75,0,0,1-5.66-2.17,9.24,9.24,0,0,0-7.55-.23,11.08,11.08,0,0,0-4.28,5.62,10.54,10.54,0,0,0-.25,5.81,3.46,3.46,0,0,0,2.8,2.08,2.36,2.36,0,0,0,2.27-1.64,3.44,3.44,0,0,1,1.77-2.16c.75-.34,1.48,1.16,1.63,3.27a6,6,0,0,1-3.27,5.45c-1.93.83-3.7.54-3.89-.67a3.1,3.1,0,0,0-2-2.5c-.9-.18-1.63.81-1.63,2.2a3.76,3.76,0,0,1-2.15,3.27,6.38,6.38,0,0,0-3,2.55,4.62,4.62,0,0,0-.25,3.27c.35.87-.27,1.64-1.39,1.64s-1.78,1.5-1.5,3.27,1.41,3.27,2.52,3.27a2.5,2.5,0,0,0,2.38-1.75,2.19,2.19,0,0,1,2.28-1.63,5.52,5.52,0,0,0,3.14-.79c.7-.52,1.83-.1,2.53.93a5.06,5.06,0,0,1,.75,3.63c-.27.95.23,1.29,1.13.79a3.27,3.27,0,0,0,.88-3.62c-.4-1.47-.4-2.87,0-3.14s1.64.82,2.52,2.37,2.62,2.44,3.65,1.93a3.13,3.13,0,0,1,3.53,1.31,6.52,6.52,0,0,1,1.26,4.22c-.21,1.11-2.26,2.57-4.53,3.27a10.45,10.45,0,0,1-6.54,0,7.41,7.41,0,0,1-3.14-3.27,5,5,0,0,0-4.28-2.19c-2-.08-5.32,1.64-7.48,3.81l-2.24,2.34a15.71,15.71,0,0,0-4.31,7.52,9.33,9.33,0,0,1-1.15,4.19,7.84,7.84,0,0,0-.75,4,11.29,11.29,0,0,0,3,6.54,12.13,12.13,0,0,0,7.53,3.27,13.29,13.29,0,0,1,6.18,1.29,6.72,6.72,0,0,1,1.77,4.42,5.6,5.6,0,0,0,2,4.23c1,.61,1.64,3.91,1.31,7.36l-.1,1c-.33,3.45,0,7.39.8,8.76a18.58,18.58,0,0,1,1.64,6.55,5.22,5.22,0,0,0,3.66,4.75c1.86.35,4.91-1.29,6.79-3.64a16.69,16.69,0,0,0,3.27-9.08,11.47,11.47,0,0,1,2.25-7.26,14.35,14.35,0,0,0,2.51-8.17,18,18,0,0,1,2.5-8.87,8.94,8.94,0,0,0,2-5.41,5.23,5.23,0,0,0-3.5-3.27,4.61,4.61,0,0,1-3.27-3.48,8.85,8.85,0,0,0-1.37-4.15,7.37,7.37,0,0,1-1.13-4.19c0-1.36.51-2.47,1-2.47s1.83,1.64,3,3.55a13.21,13.21,0,0,1,2,5.53,2.58,2.58,0,0,0,1,2.43c.62.23,2.7-.77,4.63-2.22s2.3-4.76.86-7.41-1.63-4.9-.37-5a2.7,2.7,0,0,1,2.74,1.63,11,11,0,0,0,3.09,4.06,25.53,25.53,0,0,0,4.45,3.07,4.15,4.15,0,0,1,1.64,3.93c-.13,1.63,1.37,4.79,3.27,6.83s4.31,1.15,5.25-1.81c.41-1.3.6-2,1-3.27.92-3,2.55-5.14,3.61-4.91s2.54,2.21,3.27,4.4a17.39,17.39,0,0,0,2.65,5.33c.72.75,1.26.16,1.2-1.28s.14-2.66.47-2.68a2.26,2.26,0,0,1,1.33.84c.39.49,1.63.21,2.73-.58s2-3.5,1.89-6.06.69-4.91,1.64-5.19a4,4,0,0,0,2.35-2.79,5.86,5.86,0,0,0-1.17-4.5,4.23,4.23,0,0,1-.71-4.17c.59-1.05,1.49-1.83,2-1.76s1.83-1.79,2.91-4c.85-1.75,1.27-2.6,2.12-4.27,1.08-2.12,2.47-3.35,3.11-2.81a4.07,4.07,0,0,1,1.14,2.78,3.53,3.53,0,0,0,1.17,2.6c.62.44,1.75-.36,2.5-1.73A8,8,0,0,1,347.93,202.37Z" fill="#e0e0e0"/><path d="M286.48,262.11a3.22,3.22,0,0,0-1.5-.5c-.35,0-1.13,1.05-1.75,2.28A13.34,13.34,0,0,0,282.1,269a8.51,8.51,0,0,0,.88,4.06,1.27,1.27,0,0,0,1.75.42,16.34,16.34,0,0,0,1.75-5.79C287,264.92,287,262.4,286.48,262.11Z" fill="#e0e0e0"/><path d="M246.39,197.12a4.64,4.64,0,0,0,2.65-.36,4.4,4.4,0,0,0,1.39-3.63c0-1.63-.46-3-1-3s-1.17.73-1.39,1.63a2.32,2.32,0,0,1-1.63,1.77,1.72,1.72,0,0,0-1.26,1.75A1.89,1.89,0,0,0,246.39,197.12Z" fill="#e0e0e0"/><path d="M331.15,252.93a2.71,2.71,0,0,1-1.63-.65c-.33-.35-1.49-.31-2.6.1a7.12,7.12,0,0,0-3.08,2.48,12.79,12.79,0,0,1-3.1,3.17,6.62,6.62,0,0,0-1.78,5.25c.13,2.1,1.09,3.6,2.14,3.27l3.58-.91a4.56,4.56,0,0,1,2.71.14,8.57,8.57,0,0,0,3.76.38,6.37,6.37,0,0,0,4.21-2.65,10.33,10.33,0,0,0,1.5-4.68,14,14,0,0,0-1.5-5.19,8.3,8.3,0,0,0-2.33-3.19c-.45-.12-.81.39-.81,1.11a1.18,1.18,0,0,1-1,1.36Z" fill="#e0e0e0"/><path d="M335.94,211.32c-.52.24-.67,1.17-.35,2.06a8.13,8.13,0,0,1-.69,4.63,7.08,7.08,0,0,0-.59,4.46,2.49,2.49,0,0,0,1.63,1.37c.51,0,1.64-1.16,2.42-2.55a10,10,0,0,0,1-5.7,7.67,7.67,0,0,0-1.49-4A2.16,2.16,0,0,0,335.94,211.32Z" fill="#e0e0e0"/><path d="M341.82,260.18a1.1,1.1,0,0,0-1.55.09,1,1,0,0,0-.17.27c-.39.68-1,1.86-1.39,2.61a25.7,25.7,0,0,1-2.9,3.91c-1.21,1.39-2,3-1.73,3.58s1.31.69,2.32.3a6,6,0,0,0,2.65-3.59,14.81,14.81,0,0,1,2.31-4.57C342.17,261.81,342.37,260.65,341.82,260.18Z" fill="#e0e0e0"/><rect x="131.89" y="384.87" width="34.86" height="193.1" fill="#e6e6e6"/><rect x="157.24" y="384.87" width="377.72" height="193.1" fill="#f5f5f5"/><polygon points="157.26 425.1 534.98 425.1 534.98 428.37 442.18 428.37 442.18 577.98 438.91 577.98 438.91 428.37 348.63 428.37 348.63 577.98 345.36 577.98 345.36 428.37 255.1 428.37 255.1 577.98 251.83 577.98 251.83 428.37 157.26 428.37 157.26 425.1" fill="#e0e0e0"/><path d="M451.58,510.94h0a3.26,3.26,0,0,0,3.27-3.27V493a3.26,3.26,0,0,0-3.27-3.27h0a3.27,3.27,0,0,0-3.27,3.27v14.71A3.27,3.27,0,0,0,451.58,510.94Z" fill="#e6e6e6"/><path d="M429.51,510.94h0a3.27,3.27,0,0,0,3.27-3.27V493a3.27,3.27,0,0,0-3.27-3.27h0a3.26,3.26,0,0,0-3.27,3.27v14.71A3.26,3.26,0,0,0,429.51,510.94Z" fill="#e6e6e6"/><path d="M264.51,510.94h0a3.27,3.27,0,0,0,3.27-3.27V493a3.27,3.27,0,0,0-3.27-3.27h0a3.27,3.27,0,0,0-3.28,3.27v14.71A3.27,3.27,0,0,0,264.51,510.94Z" fill="#e6e6e6"/><path d="M242.43,510.94h0a3.26,3.26,0,0,0,3.27-3.27V493a3.26,3.26,0,0,0-3.27-3.27h0a3.26,3.26,0,0,0-3.27,3.27v14.71A3.26,3.26,0,0,0,242.43,510.94Z" fill="#e6e6e6"/><rect x="123.72" y="380.67" width="43.33" height="8.45" fill="#e0e0e0"/><rect x="153.97" y="380.67" width="389.17" height="8.45" fill="#ebebeb"/><rect x="706.57" y="604.56" width="54.16" height="0.41" fill="#ebebeb"/><rect x="552.46" y="609" width="14.21" height="0.41" fill="#ebebeb"/><rect x="673.55" y="589.38" width="31.38" height="0.41" fill="#ebebeb"/><rect x="110.85" y="592.13" width="70.62" height="0.41" fill="#ebebeb"/><rect x="196.04" y="592.13" width="10.35" height="0.41" fill="#ebebeb"/><rect x="240.04" y="599.03" width="153.18" height="0.41" fill="#ebebeb"/><path d="M412.6,505.32H96.89A9.34,9.34,0,0,1,87.55,496V52.15a9.33,9.33,0,0,1,9.34-9.25H412.6a9.34,9.34,0,0,1,9.34,9.33h0V496A9.34,9.34,0,0,1,412.6,505.32ZM96.89,43.22A9,9,0,0,0,88,52.15V496a9,9,0,0,0,8.93,8.93H412.6a9,9,0,0,0,8.93-8.93V52.15a9,9,0,0,0-8.93-8.93Z" fill="#ebebeb"/><path d="M766.3,505.32H450.55a9.36,9.36,0,0,1-9.33-9.34V52.15a9.34,9.34,0,0,1,9.33-9.25H766.3a9.32,9.32,0,0,1,9.3,9.25V496A9.34,9.34,0,0,1,766.3,505.32ZM450.55,43.22a9,9,0,0,0-8.93,8.93V496a9,9,0,0,0,8.93,8.93H766.3a9,9,0,0,0,8.93-8.93V52.15a9,9,0,0,0-8.93-8.93Z" fill="#ebebeb"/><rect x="25.07" y="578.25" width="817.58" height="0.41" fill="#ebebeb"/><path d="M695,375.27l-25-7.71a1.64,1.64,0,0,1,.57-3.18l28.79,1.52c-6.8-11.82-10.82-19.21-15.4-28.46a1.64,1.64,0,0,1,2.67-1.8c6.14,6.9,11.29,12.52,19.54,21.37,2-11.45,4.25-22,7.09-32.59a1.64,1.64,0,0,1,3.19.56,231.15,231.15,0,0,0-.83,25.65l.78.28q10.39-11.85,21.77-22.74a1.63,1.63,0,0,1,2.38,2.19,300.08,300.08,0,0,0-20.34,29.18q14.84-5.58,29.81-10.84a1.64,1.64,0,0,1,1.34,2.95c-10.35,5.87-20.59,11.87-30.81,18.08l26.33,8.39a1.63,1.63,0,0,1-.59,3.17l-27.06-1.63c5.35,6.26,9.08,10.56,13.39,15.42a1.63,1.63,0,0,1-2.11,2.43c-5.43-3.61-10.22-6.82-17.18-11.44.7,5.56,1.32,9.81,2.06,14.09a1.64,1.64,0,0,1-3.13.87c-1.79-4.63-3.45-9.24-5.56-15.34-7.86,37.61-5.82,74.12,1.79,111.53l-9.44-1.71a293.31,293.31,0,0,1,4.43-110.41c-4.72,4.91-8.17,8.57-11.44,12.26a1.63,1.63,0,0,1-2.6-1.91c2.22-3.69,4.64-7.44,7.86-12.29-8.42,1.84-14.17,3.12-20.53,4.56a1.63,1.63,0,0,1-1.9-1.32,1.61,1.61,0,0,1,.82-1.72C681.6,381.68,687,379.07,695,375.27Z" fill="#ebebeb"/><path d="M681.75,388.27l19.19-10.17a2.17,2.17,0,0,0-1.53-4l-23.71,5.83c3.87-11.12,6.31-18.61,8.68-26.85a2.18,2.18,0,0,0-3.94-1.64c-3.91,6.46-7.62,12.43-13.08,21.11-3.27-8.86-6.72-17.09-10.45-25.16a2.16,2.16,0,0,0-4.06,1.45c1.64,6.41,3,12.87,4,19.2l-.64.29Q647,361,637.17,354.38a2.17,2.17,0,0,0-2.7,3.38q10.28,9.39,19.63,19.72-12.61-2.18-25.25-4.17a2.18,2.18,0,0,0-2.45,1.86,2.15,2.15,0,0,0,1.42,2.34q14,4.9,27.8,10l-20.43,11.06a2.17,2.17,0,0,0,1.64,4l22-5.58c-3.17,5.58-5.61,9.82-8.17,14a2.18,2.18,0,0,0,3.4,2.67c3.55-3.47,7.06-6.95,11.72-11.54.21,3.27.36,6.18.46,8.86a2.18,2.18,0,0,0,4.32.26c.54-3.27,1.08-6.66,1.63-10.73,14.72,35.5,19.62,71.72,19.07,109.9l8.93-3.43a292.63,292.63,0,0,0-24.94-107.64c3.38,2.38,6.23,4.41,8.83,6.32a2.18,2.18,0,0,0,2.88-3.27c-1.77-1.88-3.72-3.87-6-6.16,6.55.18,11.55.33,16.44.49a2.17,2.17,0,0,0,.64-4.28Z" fill="#f0f0f0"/><path d="M715.64,408.91l-14.3-7.6a1.54,1.54,0,0,1,1.08-2.85L720,402.78c-2.86-8.18-4.66-13.75-6.43-19.9a1.54,1.54,0,0,1,2.8-1.23c2.91,4.82,5.64,9.24,9.71,15.7,2.47-6.54,5-12.76,7.82-18.79a1.54,1.54,0,0,1,2.88,1c-1.25,4.91-2.29,9.81-3.08,14.57l.46.26q7.07-5.51,14.5-10.54a1.54,1.54,0,0,1,1.9,2.42q-7.74,7-14.72,14.71,9.45-1.63,18.91-3.12a1.54,1.54,0,0,1,1.77,1.26,1.52,1.52,0,0,1-1,1.71c-7,2.41-13.85,4.91-20.78,7.48l15.21,8.17a1.54,1.54,0,0,1-1.12,2.85l-16.35-4.16c2.39,4.21,4.21,7.35,6.1,10.53a1.54,1.54,0,0,1-2.4,1.89l-8.8-8.65c-.16,2.58-.28,4.82-.36,6.9a1.54,1.54,0,0,1-3,.19c-.42-2.48-.83-5.12-1.29-8.27-10.74,25.88-14.26,52.32-13.9,80.12l-6.54-2.48a213.1,213.1,0,0,1,18.18-78.49c-2.65,1.86-4.9,3.43-6.85,4.9a1.54,1.54,0,0,1-2-2.29c1.39-1.47,2.91-3,4.69-4.9l-12.36.37a1.53,1.53,0,0,1-.46-3C707,411.17,710.71,410.18,715.64,408.91Z" fill="#f5f5f5"/><path d="M675.27,579.83h48.78a6.41,6.41,0,0,0,6.42-6.05l5.17-84.11c.23-3.71-72.21-3.71-71.95,0l5.17,84.11A6.54,6.54,0,0,0,675.27,579.83Z" fill="#e0e0e0"/><path d="M672.31,385.49a4.88,4.88,0,0,1-1.75-4.36l1.1-9.32-2.5,4.33a4.9,4.9,0,0,1-6.69,1.84,4.17,4.17,0,0,1-.56-.37l-4.9-3.69,4.48,7.21a4.91,4.91,0,0,1-1,6.34l-5.79,4.91,5.67-1.29a4.89,4.89,0,0,1,5.77,3.27l2,5.95,1.26-6.33a4.9,4.9,0,0,1,5.74-3.89l.47.11,3.81,1.11Z" fill="#e6e6e6"/><path d="M704.84,369.44a3.61,3.61,0,0,0,1.29-3.19l-.8-6.82,1.83,3.17a3.59,3.59,0,0,0,4.91,1.32,2.92,2.92,0,0,0,.37-.24L716,361l-3.27,5.27a3.57,3.57,0,0,0,.72,4.63l4.22,3.63-4.14-.95a3.62,3.62,0,0,0-4.23,2.38l-1.42,4.35-.9-4.62a3.61,3.61,0,0,0-4.25-2.84l-.31.07-2.78.82Z" fill="#f5f5f5"/><path d="M724.11,408.45a2.56,2.56,0,0,0,.94-2.29l-.59-4.9,1.32,2.27a2.59,2.59,0,0,0,3.53,1l.27-.18,2.55-1.94-2.31,3.81a2.57,2.57,0,0,0,.52,3.27l3,2.58-3-.67a2.58,2.58,0,0,0-3,1.72l-1,3.12-.66-3.27a2.56,2.56,0,0,0-3-2l-.27.06-2,.59Z" fill="#e6e6e6"/></g><path d="M459.79,371.3l60.81-18.55,91,17.18-80,26.45S471.13,377.83,459.79,371.3Z" fill="#a7a9ac"/><path d="M626.21,209.19c-4.05,11.93-18.53,16-18.53,16-11.29,1.28-12.57-9.59-12.57-9.59l2.34-1.06L596,208.2c14.7-3,19.91-16.8,19.91-16.8a74.79,74.79,0,0,0,4.38,6.29C621.53,202.59,626.21,209.19,626.21,209.19Z" fill="#f9b499"/><path d="M658.5,631.81s-2.53,9.48,18,7.66A78.6,78.6,0,0,1,691.4,639s9.42,2,9.27-6.83Z" fill="#2f2e41"/><path d="M565.59,634.52s-2.87,4.69,8.07,7c0,0,11.72,3.12,25.79-3.13a43.83,43.83,0,0,1,16.15-2.87A58.51,58.51,0,0,0,627.46,634a3.74,3.74,0,0,0,2.73-3.59v-4.19Z" fill="#2f2e41"/><path d="M665.87,599.62s2.87,13.28.52,15.11c0,0-8.85,11.72-7,17.45l40.11-.78s2-.82-.71-5.68a22.77,22.77,0,0,0-5.13-6.26c-2.16-1.88-5.36-5.28-5.36-8.9l-.78-10.68A35.7,35.7,0,0,1,665.87,599.62Z" fill="#0071f2"/><path d="M603.36,598.84s1.56,8.85-5.47,11.72c0,0-6,5.21-18.24,9.11a16.39,16.39,0,0,1,8.6,11.73l1,6.25,16.93-4.95s22.66-1.3,24-6.51a34.74,34.74,0,0,0-3.58-19.45,3.74,3.74,0,0,1-.41-1.29l-.7-6.35S620,600.66,603.36,598.84Z" fill="#0071f2"/><path d="M694.37,368.49s3.39,73.25,1.4,107.16a58.65,58.65,0,0,0-.29,14.66,95,95,0,0,1,.48,12.62c-.62,22.5-2.67,84.68-6.58,96.39,0,0-14.36,4.79-25.13,0,0,0-17.15-94.54-11.17-122.07l-6.38-42.69s-4.39,37.1-6.78,42.69A454.66,454.66,0,0,1,635,555l-5.12,43.88s-20,2.56-28.54-.85c0,0-6.82-73.29-4.27-117.17,0,0-3-44.75-1.27-100.35,0,0,33.66-4.9,46-2.34C641.76,378.14,680.73,376.5,694.37,368.49Z" fill="#2f2e41"/><path d="M626.87,378.08l14,31.39-4.54,63.19.41,69.79s5-44.5,3.14-65.2c0,0,6.36-33.7,6.78-42.69l-4.94-56.42S629.35,376.84,626.87,378.08Z" opacity="0.2"/><path d="M562.88,292.68c4.12.78,16.65,2.84,23.58.53,0,0-3.83-47.17-2.22-73.15,0,0-18.53,8.32-19.12,36.45l-3.46,34.54A1.5,1.5,0,0,0,562.88,292.68Z" fill="#0071f2"/><path d="M562.88,292.68c4.12.78,16.65,2.84,23.58.53,0,0-3.83-47.17-2.22-73.15,0,0-18.53,8.32-19.12,36.45l-3.46,34.54A1.5,1.5,0,0,0,562.88,292.68Z" opacity="0.2"/><path d="M675,256s19.57,3,25.55,33c0,0,13.17,62.24,12.37,77.79,0,0,2.79,9.18-17.95,10l-.8-7.18,2.42-1.91s-7.15-37.81-13.53-59.75C683.06,307.88,674.18,267.31,675,256Z" fill="#2f2e41"/><path d="M675,256s19.57,3,25.55,33c0,0,13.17,62.24,12.37,77.79,0,0,2.79,9.18-17.95,10l-.8-7.18,2.42-1.91s-7.15-37.81-13.53-59.75C683.06,307.88,674.18,267.31,675,256Z" opacity="0.2"/><path d="M370.45,593.69a31.53,31.53,0,0,1-5.38-.4c-24.1.81-45-11.86-60.47-36.6a138.75,138.75,0,0,1-16.22-37.86l3.12-.73a138,138,0,0,0,15.86,37c15.07,24.06,34.49,35.84,57.77,35h.19l.19,0c.12,0,12.39,2.33,28.36-5.41,14.83-7.18,36-24.72,52.54-67.5l3,1.16c-17,43.91-38.95,62-54.36,69.34A57.17,57.17,0,0,1,370.45,593.69Z" fill="#bcbec0"/><path d="M456.93,523.3l-.65-12s-50.8-7.12-177.17.36l.44,11.64S386,519.91,456.93,523.3Z" fill="#bcbec0"/><path d="M474.86,639.41a2.63,2.63,0,0,1-.92,2.1,25.33,25.33,0,0,1-4.64,3.07c-19.26,9.62-99.5,10.5-99.5,10.5-107.68-2-107.4-14.3-107.4-14.3v-6.14c0,8.46,47.52,15.32,106.14,15.32s106.14-6.86,106.14-15.32Z" fill="#bcbec0"/><path d="M474.68,634.64c0,8.46-47.52,15.32-106.14,15.32S262.4,643.1,262.4,634.64s47.52-15.33,106.14-15.33S474.68,626.17,474.68,634.64Z" fill="#d1d3d4"/><path d="M384.61,608.37V625h8.6v-8.19s3.67.85,12,7.62c0,0,.43,1,9.31,1.41,0,0,16.79,1.55,15.23-5.92Z" fill="#2f2e41"/><path d="M393.21,625l3.53-2.12-.05-4.52a11.17,11.17,0,0,0-3.48-1.55Z" fill="#2f2e41"/><path d="M393.21,625l3.53-2.12-.05-4.52a11.17,11.17,0,0,0-3.48-1.55Z" opacity="0.2"/><path d="M467.54,623.22l1.46-3.84-3.11-3.84a18.12,18.12,0,0,0-4.39,1.09Z" fill="#2f2e41"/><path d="M467.54,623.22l1.46-3.84-3.11-3.84a18.12,18.12,0,0,0-4.39,1.09Z" opacity="0.2"/><path d="M234.05,493.16l45.06,18.5s113.74-7.29,177.17-.36l47.08-18.19S406.68,481,234.05,493.16Z" fill="#d1d3d4"/><polygon points="234.05 493.16 233.13 504.06 279.55 523.3 279.11 511.66 234.05 493.16" fill="#a7a9ac"/><polygon points="503.73 503.68 456.93 523.3 456.28 511.3 503.36 493.11 503.73 503.68" fill="#a7a9ac"/><path d="M442.64,479c-8,41-34.67,102.69-34.67,102.69-5.32,0-19.77-3-19.77-3s4.3-49.23,8.14-75.22l2.13-22.58S437.74,479.83,442.64,479Z" fill="#2f2e41"/><path d="M442.64,479c-8,41-34.67,102.69-34.67,102.69-5.32,0-19.77-3-19.77-3s4.3-49.23,8.14-75.22l2.13-22.58S437.74,479.83,442.64,479Z" opacity="0.2"/><path d="M696.59,367.63c-8.81,10.79-59.73,10.51-59.73,10.51-16.82-1.07-41.11,2.34-41.11,2.34L594.47,350c-.64-22.37-3.2-32.18-3.2-32.18-9.59-33.66-7-97.78-7-97.78l10.87-4.48s1,8.32,8.79,9.54a11.78,11.78,0,0,0,6.2-.81c4.3-1.73,13.1-6.24,16.11-15.12a35.74,35.74,0,0,1,15.84-.92L675,256a319.4,319.4,0,0,0,7.39,46C690.05,327.57,696.59,367.63,696.59,367.63Z" fill="#0071f2"/><path d="M632.11,208s9.65-2.84,9.94.29c0,0-9.23,32,1,71.75a18.65,18.65,0,0,0,6.58,10.07c7.9,6.18,23.47,18.54,30.11,25.18a11,11,0,0,0,7.15,3.21h0l3.37,15.64s-45.41-25-59.33-73.87C631,260.25,623.87,237.24,632.11,208Z" fill="#2f2e41"/><path d="M563.92,292.81s.4,22.74,1.2,26.53c0,0-6.79,3.19-20,16.15l-20.26,15.27,26.84,5.33,21.56-11.47s13.77-7,15.33-14.06c0,0-8.09-26.28-9.65-36.36A58.76,58.76,0,0,1,563.92,292.81Z" fill="#f9b499"/><path d="M584.24,220.06s-9.21.9-9.62,9.07c0,0-3.88,25.34.21,47.82,0,0,12.46,57.63,19.21,65.81,0,0-.63-17.13-2.77-24.92,0,0-4.9-12.71-6.89-55.32Z" fill="#2f2e41"/><path d="M457.3,369.5l5.29,2,32.6-10,.64-3.62s-26.28,7.36-38.53,11.42A.1.1,0,0,0,457.3,369.5Z" fill="#d1d3d4"/><polygon points="608.99 370.57 531.62 355.98 531.41 351.93 612.36 368.12 608.99 370.57" fill="#d1d3d4"/><polygon points="494.55 335.1 512.45 340.43 512.45 370.04 494.34 364.5 494.55 335.1" fill="#0071f2"/><polygon points="494.55 335.1 503.92 326.15 521.61 329.56 512.45 340.43 494.55 335.1" fill="#0071f2"/><polygon points="494.55 335.1 503.92 326.15 521.61 329.56 512.45 340.43 494.55 335.1" fill="#fff" opacity="0.4"/><polygon points="512.45 340.43 531.62 335.95 532.68 365.78 512.45 370.04 512.45 340.43" fill="#0071f2"/><polygon points="512.45 340.43 531.62 335.95 532.68 365.78 512.45 370.04 512.45 340.43" opacity="0.2"/><polygon points="521.61 329.56 531.62 335.95 512.45 340.43 521.61 329.56" fill="#0071f2"/><polygon points="521.61 329.56 531.62 335.95 512.45 340.43 521.61 329.56" fill="#fff" opacity="0.2"/><path d="M503.92,326.15v-4.27a1.26,1.26,0,0,1,1.46-1.24l15.36,2.56a1.25,1.25,0,0,1,1,1.28l-.17,5.08Z" fill="#0071f2"/><path d="M353.73,425s7.24-.36,11.93-2" fill="none" stroke="#f7a48b" stroke-miterlimit="10"/><path d="M409.12,480.4c11.5,5.54,13.63,17.47,13.63,17.47l27.16,76.48-16.36,9.47c-23-18.09-47.14-71.62-47.14-71.62-111-6.39-113.94-34.38-113.94-34.38S379.87,483.25,409.12,480.4Z" fill="#2f2e41"/><path d="M492.6,596.7a27.4,27.4,0,0,1-19.76,15.36l-22.55,2.66a5.47,5.47,0,0,1-4.36-1.43,5.35,5.35,0,0,1-1.53-2.48,21.21,21.21,0,0,1-.67-6.08,10.37,10.37,0,0,1,.12-1.25,13.5,13.5,0,0,0-.64-7.33c-1.47-4.39-9.66-12.33-9.66-12.33l16.36-9.47,6.84,16.5c4.93,10.06,26,5.48,26,5.48C493.87,593,492.6,596.7,492.6,596.7Z" fill="#f9b499"/><path d="M494.07,600.21c-4.59,6.3-12.27,12.22-12.27,12.22a17.89,17.89,0,0,1-7.31,2.86,24,24,0,0,1-6.16.21,17.49,17.49,0,0,0-6.83,1.13l6,6.59-6,5.67-15.73-15.55.16-.05a5.47,5.47,0,0,0,4.36,1.43l22.55-2.66A27.4,27.4,0,0,0,492.6,596.7a1.42,1.42,0,0,1,1,.26A2.32,2.32,0,0,1,494.07,600.21Z" fill="#2f2e41"/><path d="M443.94,598.89s17.6,5.74,22,14l-5.35.67s-4.2-8.21-16.73-10C443.85,603.48,443.94,601.64,443.94,598.89Z" fill="#0071f2"/><path d="M472.84,612.06s1-12.46,3.22-14.83l5.93-.9s-3.09,2.29-3.09,13.82A20.27,20.27,0,0,1,472.84,612.06Z" fill="#0071f2"/><path d="M483.72,607.41a12.62,12.62,0,0,0-4.3-4.68s.74-5.67,2.57-6.4c0,0,5.23,2.64,6.88,6.3A21.26,21.26,0,0,1,483.72,607.41Z" fill="#0071f2"/><path d="M390,579l-1.51,17.3a3.31,3.31,0,0,1-.56,1.61c-1.47,2.18-5.52,8.88-2.47,12.28,0,0,1.41,2.82,11.84,4.23a23.38,23.38,0,0,0,14.95,7.9s15.94,2.11,17.49-2.4c0,0,2.12-4.09-9.73-6.63,0,0-13-2.54-15.8-14.39A21.68,21.68,0,0,1,408,581.67c-2.35-.2-4.79-.46-7.31-.81C396.89,580.35,393.33,579.72,390,579Z" fill="#f9b499"/><path d="M393.67,613.86s-.53-4.7-7.31-13.3a11.53,11.53,0,0,1,.62-1.2,12.66,12.66,0,0,1,.95-1.43,42.55,42.55,0,0,1,4.41,5.07c2.25,3,4.59,7,4.93,10.86,0,.19,0,.39,0,.58Z" fill="#0071f2"/><path d="M415.57,611.81s-6.05,3.86-9.16,9.08a19.51,19.51,0,0,0,4.86,1.3s5.64-7.33,9.31-8.74A31.65,31.65,0,0,1,415.57,611.81Z" fill="#0071f2"/><path d="M415.33,617.46l.61,5.23a39.38,39.38,0,0,0,5.18.13l-.54-9.37S418.86,613.66,415.33,617.46Z" fill="#0071f2"/><rect x="352.37" y="477.98" width="24.5" height="155.16" fill="#a7a9ac"/><path d="M607.86,446.2a6,6,0,0,1-2.06,4.72,56.2,56.2,0,0,1-10.47,6.9C552,479.51,371.26,481.48,371.26,481.48c-242.48-4.6-241.87-32.2-241.87-32.2V435.44c0,19.07,107,34.52,239,34.52s239-15.45,239-34.52Z" fill="#bcbec0"/><polygon points="340.66 398.59 340.7 402.65 285.38 404.54 284.42 401.71 340.66 398.59" fill="#f9b499"/><path d="M261.46,405.29,271.23,332s.4-18.92,14.39-20.47l4.71,93.32Z" fill="#2f2e41"/><path d="M607.46,435.44c0,19.07-107,34.52-239,34.52s-239-15.45-239-34.52,107-34.5,239-34.5S607.46,416.39,607.46,435.44Z" fill="#d1d3d4"/><path d="M344.14,379.84s8.31,21.31,18.75,20.67c0,0,2.34.64,11.29-7.67,0,0,22.44-20.67,35.51-37.14,0,0,2.13-2.84,7.38-4.12,0,0,11.22-2.27,16.48-6.25,0,0,7.24-6,5.11-8.67a2.34,2.34,0,0,0-.57-3.12s.43-3-2.84-2.56c0,0,.14-2.41-5.11.71,0,0-14.77,10.23-16.9,5.26,0,0-1.14-2.84,1.7-5.68,0,0,3.13-2.42,2-4.41,0,0-1.7-2.13-6.68,4.12A27.57,27.57,0,0,0,404,341.21s-2,6.82-6.54,9.23c0,0-18,11.24-31.41,23.66a1,1,0,0,1-1.58-.27l-2.71-5.25L345,377.5Z" fill="#f9b499"/><path d="M413,339.19s2.92,6.73-3.3,10" fill="none" stroke="#f7a48b" stroke-miterlimit="10"/><path d="M424.2,338.68a51.25,51.25,0,0,0,9.66-7.12" fill="none" stroke="#f7a48b" stroke-miterlimit="10"/><rect x="353.09" y="379.2" width="7.88" height="6.39" fill="#2f2e41"/><rect x="351.38" y="376.22" width="11.08" height="3.83" rx="1.92" fill="#0071f2"/><path d="M345,377.5s11.53-5.44,16.78-8.92a3.25,3.25,0,0,0,1.38-3.33c-1.84-9.34-10.58-48-29.66-51.41Z" fill="#0071f2"/><path d="M345,377.5s11.53-5.44,16.78-8.92a3.25,3.25,0,0,0,1.38-3.33c-1.84-9.34-10.58-48-29.66-51.41Z" opacity="0.2"/><path d="M340.66,398.59s1.37-15.73,6.15-24.93a18.92,18.92,0,0,1,2.54-3.67c2.27-2.64,8.52-12.3.68-32.47,0,0-7.24-21.22-16.54-23.68l-44-3s-7.39,43.75-6,71l.86,19.88Z" fill="#0071f2"/><path d="M328.85,301.71l.22,9.48s2.65,1.55,4.42,2.65c0,0,1.54,19.41-.45,26.25,0,0-12.35-13.68-17.86-18.31,0,0,.15-14.28-8.75-25.67,0,0,1-6,1.64-10C308.07,286.11,316.06,303.25,328.85,301.71Z" fill="#f9b499"/><path d="M329,309.92l-.13-7.78s-6.29,1.19-15.33-9.39C313.56,292.75,314.91,303.53,329,309.92Z" fill="#f7a48b"/><path d="M357,383.68h0a9.48,9.48,0,0,1,9.48,9.48v35a0,0,0,0,1,0,0h-19a0,0,0,0,1,0,0v-35a9.48,9.48,0,0,1,9.48-9.48Z" fill="#0071f2"/><path d="M311.12,341.07s6.39,32.59-4,56.59l2.83,1.42s12.44-29,2.3-61.13Z" fill="#2f2e41"/><ellipse cx="324.79" cy="272.03" rx="20.59" ry="30.35" transform="translate(-46.04 67.15) rotate(-11.03)" fill="#f9b499"/><path d="M330,237.29c-7.21-1.07-11.35,5.12-13.66,9.08a22.35,22.35,0,0,0-2.89,9.5,27.79,27.79,0,0,1-2.68,10.34s3.54.46,6.15-5.54c0,0,5.08.93,12.31-2.77,0,0,11.22.27,16.11-3.18a2.14,2.14,0,0,0,.88-2C345.84,249.26,343.55,239.32,330,237.29Z" fill="#2f2e41"/><path d="M325.08,235.29s-13.75,3.73-14.18,18c0,0-2.34,37.92-4.47,42.82l-12.14-11.94a33.5,33.5,0,0,1-8.75-16.66,31.74,31.74,0,0,1-.62-6.77,21.6,21.6,0,0,1,.68-4.76c1.09-4.31,3.92-10.24,11.24-12.07C296.84,243.92,306.67,232.42,325.08,235.29Z" fill="#2f2e41"/><g opacity="0.2"><path d="M330.15,254c-.48-1-1-1.91-1.5-2.83s-1.07-1.82-1.67-2.68-1.21-1.71-1.87-2.53-1.37-1.62-2.06-2.47a14,14,0,0,1,4.76,4.44,15.79,15.79,0,0,1,1.54,2.9A10.63,10.63,0,0,1,330.15,254Z"/></g><g opacity="0.2"><path d="M327,240.94a11.74,11.74,0,0,1,7,3.26,14.14,14.14,0,0,1,1.31,1.48,11.78,11.78,0,0,1,1,1.72,10.13,10.13,0,0,1,.95,3.76,20,20,0,0,0-1.64-3.39,13.5,13.5,0,0,0-2.3-2.85,17.38,17.38,0,0,0-2.92-2.26A22.23,22.23,0,0,0,327,240.94Z"/></g><g opacity="0.2"><path d="M343.78,252.58a27.53,27.53,0,0,0-2-4.34,21.47,21.47,0,0,0-2.74-3.8,16.54,16.54,0,0,0-3.52-3.05,23.8,23.8,0,0,0-4.24-2.16,13.56,13.56,0,0,1,4.64,1.49,15.33,15.33,0,0,1,2.08,1.34,19.25,19.25,0,0,1,1.79,1.71A15.89,15.89,0,0,1,343.78,252.58Z"/></g><ellipse cx="304.92" cy="278.88" rx="4.32" ry="7.22" transform="translate(-104.8 225.24) rotate(-34.99)" fill="#f9b499"/><path d="M325.08,235.29a16.47,16.47,0,0,0-13.4,8.68,20.22,20.22,0,0,0-2.41,8.28c-1.35,17.76-2.8,21.8-2.8,21.8a22.28,22.28,0,0,1,2.62,3.23l3.06-10.51a61.39,61.39,0,0,0,1.89-9c.91-6.61,4.2-19.91,16-20.49a6.91,6.91,0,0,0-4.93-2Z" fill="#0071f2"/><path d="M281.93,257.34s-12.14-3.41-10,18.75c0,0-1.92,20.45,16.4,38.77a71.5,71.5,0,0,0,10.23,8.52s10.86,6.82,12.57,17.69c0,0,12.63-22.44-4.69-45L295.55,285.4a34.51,34.51,0,0,1-8.08-12.14,28.29,28.29,0,0,1-1.59-5.77A10,10,0,0,1,281.93,257.34Z" opacity="0.2"/><path d="M264.53,362.8s-10.22,31.81-2.84,37.21c0,0,10.23,7.67,51.7,16.19,0,0,14.77,2,21.59,5.4a28.5,28.5,0,0,0,16.19,5.4s14.49-.29,14.49-4a2.14,2.14,0,0,0,1.13-3.13s2.56-1.56-.28-2.55c0,0,1.7-1.85-2.42-1.56,0,0-14.2,2.32-16.48-.81l-.06-6.49a41.39,41.39,0,0,0-9.59,1.76s-3,.56-9.23-3c0,0-30.8-14.73-48.94-19.26a.18.18,0,0,1-.12-.25c.69-1.66,5.57-13.52,6.74-19.12C286.41,368.62,275.25,371.53,264.53,362.8Z" fill="#f9b499"/><path d="M263.62,362.31c2.69,2.13,12,8.57,22.79,6.31a3.47,3.47,0,0,0,2.45-2c1.58-3.66,5.29-13.79,7.49-32.2,0,0,2.27-15.62-7.11-21.59,0,0-10.51-5.39-15.9,12.79,0,0-7.53,23.37-10.29,35.11A1.58,1.58,0,0,0,263.62,362.31Z" fill="#0071f2"/><path d="M263.62,362.31c2.69,2.13,12,8.57,22.79,6.31a3.47,3.47,0,0,0,2.45-2c1.58-3.66,5.29-13.79,7.49-32.2,0,0,2.27-15.62-7.11-21.59,0,0-10.51-5.39-15.9,12.79,0,0-7.53,23.37-10.29,35.11A1.58,1.58,0,0,0,263.62,362.31Z" fill="#0071f2"/><path d="M263.62,362.31c2.69,2.13,12,8.57,22.79,6.31a3.47,3.47,0,0,0,2.45-2c1.58-3.66,5.29-13.79,7.49-32.2,0,0,2.27-15.62-7.11-21.59,0,0-10.51-5.39-15.9,12.79,0,0-7.53,23.37-10.29,35.11A1.58,1.58,0,0,0,263.62,362.31Z" opacity="0.2"/><path d="M281.93,257.34s-12.14-3.41-10,18.75c0,0-1.92,20.45,16.4,38.77a71.5,71.5,0,0,0,10.23,8.52s10.86,6.82,12.57,17.69c0,0,12.63-22.44-4.69-45L295.55,285.4a34.51,34.51,0,0,1-8.08-12.14,28.29,28.29,0,0,1-1.59-5.77A10,10,0,0,1,281.93,257.34Z" fill="#2f2e41"/><g opacity="0.2"><path d="M276.75,281.56a71.15,71.15,0,0,0,3.36,7.12,69.46,69.46,0,0,0,4.06,6.73,47.78,47.78,0,0,0,10.55,11.46,53.77,53.77,0,0,1,10.93,11.51,43.53,43.53,0,0,1,3.91,6.91A20.74,20.74,0,0,1,311.4,333a21.7,21.7,0,0,0-2.29-7.47,41.93,41.93,0,0,0-4.09-6.68,55.79,55.79,0,0,0-10.92-11.16,43.4,43.4,0,0,1-5.79-5.47,46.67,46.67,0,0,1-4.78-6.35A62.09,62.09,0,0,1,276.75,281.56Z"/></g><g opacity="0.2"><path d="M292.09,289.51a45.76,45.76,0,0,1,6.12,9.8,35,35,0,0,1,2,5.46,18.75,18.75,0,0,1,.68,5.76,32.3,32.3,0,0,0-1.43-5.53c-.61-1.79-1.38-3.54-2.16-5.27s-1.65-3.43-2.52-5.13S293,291.2,292.09,289.51Z"/></g><g opacity="0.2"><path d="M307.14,306a19.87,19.87,0,0,1,2.76,5.21,32.75,32.75,0,0,1,1.53,5.73,36.58,36.58,0,0,1,.47,5.9c0,1-.07,2-.11,3s-.23,1.95-.39,2.92c-.07-2-.13-3.91-.28-5.85-.09-1-.14-1.93-.28-2.89s-.25-1.92-.4-2.87a49.63,49.63,0,0,0-1.28-5.65A35.15,35.15,0,0,0,307.14,306Z"/></g><path d="M284.92,260.75a31.74,31.74,0,0,0,.62,6.77c-2,0-3.91-2.22-4.41-5.29-.53-3.26.72-6.17,2.82-6.51a2.59,2.59,0,0,1,1.65.27A21.6,21.6,0,0,0,284.92,260.75Z" fill="#0071f2"/><path d="M353.73,418.83a54,54,0,0,0,12.78-1.49" fill="none" stroke="#f7a48b" stroke-miterlimit="10"/><path d="M353.94,422.45a102.64,102.64,0,0,0,12.85-2.56" fill="none" stroke="#f7a48b" stroke-miterlimit="10"/><path d="M426.74,340.84a44.86,44.86,0,0,0,9.66-6.48" fill="none" stroke="#f7a48b" stroke-miterlimit="10"/><path d="M427.88,344.53s6.74-2.8,9.41-7.5" fill="none" stroke="#f7a48b" stroke-miterlimit="10"/><path d="M676,619.94s-11-1.54-17.53,11.87a.34.34,0,0,0,.21.48,81,81,0,0,0,23.83,2,49.61,49.61,0,0,0,17.92-1.72.33.33,0,0,0,.21-.42C699.89,630,694.6,617.56,676,619.94Z" fill="#d1d3d4"/><path d="M579.65,619.67s-16.15,5.47-14.06,14.85c0,0,4.69,7.3,23.7,3.13C589.29,637.65,589.29,623.84,579.65,619.67Z" fill="#d1d3d4"/><polygon points="597.45 214.52 595.96 208.82 613.5 195.88 597.45 214.52" fill="#f7a48b"/><ellipse cx="595.36" cy="171.29" rx="24.28" ry="37.91" fill="#f9b499"/><ellipse cx="611.81" cy="175.95" rx="8.59" ry="5.11" transform="translate(218.32 676.39) rotate(-67.87)" fill="#f9b499"/><path d="M574.44,158.7s3.2,7.67,14.49-.21c0,0,2.77,6.18,14.91.42,0,0-3.19,7,.43,9.16,0,0-3.2,7,1.92,10.66,0,0-.86-6.18,6-10.87,0,0,5.54-1.49,5.33,4.9,0,0,.42,7.67-5.76,10.87,0,0,1.28,11.5,8.53,14.06a116.06,116.06,0,0,1,6.91-18.05,31.48,31.48,0,0,0,3.28-12.94,42.74,42.74,0,0,0-1.27-12.49,22.77,22.77,0,0,0-8.4-12.24,65.57,65.57,0,0,0-24-11s-10.86-2.13-19,5.12c0,0-3.06,3.22-5.83,4.07a6.29,6.29,0,0,0-3.13,2c-1.46,1.78-3.09,5.18-3,11.42C565.92,153.59,566.13,167.44,574.44,158.7Z" fill="#2f2e41"/><g opacity="0.2"><path d="M574.44,158.7a9.2,9.2,0,0,1-1.36-4.38,12,12,0,0,1,.63-4.63,14.46,14.46,0,0,1,2.29-4.05,22.62,22.62,0,0,1,1.55-1.7c.6-.49,1.18-1,1.79-1.43-.46.62-1,1.17-1.42,1.76s-.9,1.2-1.29,1.83a19.23,19.23,0,0,0-1.1,1.91,16.31,16.31,0,0,0-.88,2,14.52,14.52,0,0,0-.79,4.28A13,13,0,0,0,574.44,158.7Z"/></g><g opacity="0.2"><path d="M588.93,158.49a9,9,0,0,1,0-4,6.52,6.52,0,0,1,.8-1.91,5.56,5.56,0,0,1,1.48-1.54l0,0a9.6,9.6,0,0,0,1.56-1.83,10.56,10.56,0,0,0,1.11-2.2,11.4,11.4,0,0,0,.64-2.41c.08-.41.1-.83.15-1.26s0-.85,0-1.29a10.24,10.24,0,0,1,.34,2.6,9.49,9.49,0,0,1-.37,2.63,9.27,9.27,0,0,1-1.09,2.45,8.48,8.48,0,0,1-1.77,2.08h0l0,0a5.79,5.79,0,0,0-1.29,1.23,7.33,7.33,0,0,0-.85,1.62A12.41,12.41,0,0,0,588.93,158.49Z"/></g><g opacity="0.2"><path d="M603.84,158.91a19.77,19.77,0,0,0,.61-5c0-.82-.05-1.65-.13-2.48s-.2-1.68-.26-2.56a8.79,8.79,0,0,1,1,2.42,11,11,0,0,1,.36,2.62,9.85,9.85,0,0,1-.38,2.64A6,6,0,0,1,603.84,158.91Z"/></g><path d="M533.18,394.74c5.8-1.43,72.15-21.29,79.18-26.62l.64,3.41s-65.68,23.63-80.52,26.21a5.43,5.43,0,0,1-2.5-.15c-8.51-2.52-59.43-17.76-72.5-24.78,0,0-1.07-.42-.43-3.41,0,0,37.3,16.56,74.28,25.35A4,4,0,0,0,533.18,394.74Z" fill="#bcbec0"/><path d="M613.36,364.5c16.25-7.22,49.71-32.66,49.71-32.66,19.6-12.79,11.5-53.55,11.5-53.55-12.92,6.11-30.25,4.69-30.25,4.69-.28,5.82,5.4,26.13,5.4,26.13s-33.52,29.26-41.47,39.48a36.87,36.87,0,0,0-25.57,6.54s-5.68,2-3.41,4.83c0,0,1.12,1.12,6-1a7.88,7.88,0,0,1,5.42-.81c2.1.54,4,1.6,2.49,5.69,0,0-2.51,6.66-14.72,14.61,0,0-5.54,4.26-1.85,7,0,0-1.13,2.42,2.27,2.13,0,0-1.13,1.71,1.57,2.42,0,0,.14,1.84,4.68.42l10.51-5s5.26-1.56,8.38-8.09C604,377.29,610.8,365.64,613.36,364.5Z" fill="#f9b499"/><path d="M576.57,385.38a58.54,58.54,0,0,0,15.06-10.51" fill="none" stroke="#f7a48b" stroke-miterlimit="10"/><path d="M578.84,387.51a37.8,37.8,0,0,0,16-8.38" fill="none" stroke="#f7a48b" stroke-miterlimit="10"/><path d="M580.41,389.93s5.11,0,15.62-7.67" fill="none" stroke="#f7a48b" stroke-miterlimit="10"/><path d="M641.46,281c-1.31-9-6.12-46.39.59-72.72,0,0,27.84-4,31,30.68,0,0,2.84,34.08,4.55,38.35a71.43,71.43,0,0,1-33.78,5.84A2.52,2.52,0,0,1,641.46,281Z" fill="#0071f2"/><path d="M641.46,281c-1.31-9-6.12-46.39.59-72.72,0,0,27.84-4,31,30.68,0,0,2.84,34.08,4.55,38.35a71.43,71.43,0,0,1-33.78,5.84A2.52,2.52,0,0,1,641.46,281Z" opacity="0.2"/><path d="M579.34,370.68C578.06,373,567,378.14,567,378.14c-7.67,4.69-17.68,5.54-17.68,5.54A94.13,94.13,0,0,0,538,386.44c-7.24,2.35-9.8,2.56-9.8,2.56-4.82-.2-26.16-15.07-26.83-15.54l24.71,11.85a1.82,1.82,0,0,0,2.26-.6c2.44-3.37,6.5-3.52,8.12-3.44a18.49,18.49,0,0,0,2,0c5.46-.34,7.7-1.81,8.33-2.32s1-.76,1.5-1.12c7.9-5.36,14-4.59,14-4.59a87.43,87.43,0,0,0,16.85-2.55Z" fill="#2f2e41"/><path d="M579.34,370.68C578.06,373,567,378.14,567,378.14c-7.67,4.69-17.68,5.54-17.68,5.54A94.13,94.13,0,0,0,538,386.44c-7.24,2.35-9.8,2.56-9.8,2.56-4.82-.2-26.16-15.07-26.83-15.54l24.71,11.85a1.82,1.82,0,0,0,2.26-.6c2.44-3.37,6.5-3.52,8.12-3.44a18.49,18.49,0,0,0,2,0c5.46-.34,7.7-1.81,8.33-2.32s1-.76,1.5-1.12c7.9-5.36,14-4.59,14-4.59a87.43,87.43,0,0,0,16.85-2.55Z" opacity="0.2"/><path d="M580.51,370.29l-1.36.4a87.43,87.43,0,0,1-16.85,2.55s-6.13-.77-14,4.59c-.51.36-1,.73-1.5,1.12s-2.87,2-8.33,2.32a18.49,18.49,0,0,1-2,0c-1.62-.08-5.68.07-8.12,3.44a1.82,1.82,0,0,1-2.26.6l-24.71-11.85h0s2.76-10.44,22.37-11.93a24.57,24.57,0,0,0,12.78-3s9.59-2.56,14.7-1.49a77.61,77.61,0,0,1,11.08,4.47s13.09,2.58,18.41,7.93A.5.5,0,0,1,580.51,370.29Z" fill="#2f2e41"/></svg>