 <!DOCTYPE svg PUBLIC "-//W3C//DTD SVG 1.1//EN" "http://www.w3.org/Graphics/SVG/1.1/DTD/svg11.dtd">
<svg id="b9286d90-b330-460c-86d0-9c818be3a577" data-name="Layer 1" xmlns="http://www.w3.org/2000/svg" width="865.76" height="682.89" viewBox="0 0 865.76 682.89">
<defs>
<style xmlns="http://www.w3.org/1999/xhtml">*, ::after, ::before { box-sizing: border-box; }
img, svg { vertical-align: middle; }
</style>
<style xmlns="http://www.w3.org/1999/xhtml">*, body, html { -webkit-font-smoothing: antialiased; }
img, svg { max-width: 100%; }
</style>
</defs>
<path d="M232.11,627.34s-1,6,3.13,9a5.16,5.16,0,0,0,3,.92h7.18s6.3,4.38,20.66,0c0,0,6.65-3.85,9.1-.35,0,0,1.18,2.84,12.38,2.37a2.78,2.78,0,0,1,2,.66c1.72,1.5,7,4.47,20,.65,0,0,10.37-2,11.4-7.73l-2.29,1.25s-3.81-1-8.61,2.57c0,0-9.46,3-18.71.94a76.55,76.55,0,0,1-14.49-4s-2.38-2-9.85.8l-26.2-1.18a7.66,7.66,0,0,1-2.17-.42C236.56,632.14,232.71,630.41,232.11,627.34Z" fill="#2f2e41" data-secondary="true"/>
<path d="M244.28,582.62s-2.74,2.27-1.07,4.67l-1.3.83v5.25s-1.24-.17-.72,2.8c0,0,4.94,2.57,6,7.63,0,0-.18,6.83,9.45,4.2,0,0,4.2-1.57,6.31-7.88a11.12,11.12,0,0,1,8.58-2.62s-4.08-1.89-3.48-10.81C268,586.69,261.52,591.2,244.28,582.62Z" fill="#f9b499"/>
<path d="M179.56,563.53l-4.93,3.63s-.67,3.59-3.36,4.71v2.91l-9.4,7.61s-15.31-1.5-17.55-13.37a7.81,7.81,0,0,1,3-6.65,8.3,8.3,0,0,0,2.52-3.61c.62-2-.45-5.82-1.94-8.56,0,0,2-6.49,4.92-2.91,1.12,0,1.31-2.3,7-3.19C159.83,544.1,156,560.56,179.56,563.53Z" fill="#f9b499"/>
<path d="M122.86,556.84s-7.74-.67-7.2,11.44a19.15,19.15,0,0,0,2,7.34,12.19,12.19,0,0,1,.62,1.71,53.31,53.31,0,0,0,7.33,15.82,19.84,19.84,0,0,0,4.22,4.69s3.59,2.92,2.91,10.08c0,0,.38,5.57,3.3,8.62a10.11,10.11,0,0,1,3.14,6.93v.11a7.25,7.25,0,0,0,1,3.9,32.56,32.56,0,0,0,3.79,5.17,27.46,27.46,0,0,1,3.36,4.39c2.08,3.43,6.29,9.24,11.18,9.4,0,0,9.4,4.48,13.66,0Z" fill="#2f2e41" data-secondary="true"/>
<path d="M249.48,508.46s-5.88,27.13-2.74,46.39c0,0-.45,19.48-2.46,21.72,0,0-2.91,3.58,0,6,0,0,19.7,11,27.09,1.34,0,0,0-37,10.08-59.79,0,0,2.46-5.38,1.79-14.33,0,0,2.69-.68,2.69-11.87,0,0,5.37-4.71,4.7-16.13,0,0,3.81-6.72,5.15-19.7,0,0,0-13.66,1.12-23.74,0,0,1.43-27.47-1.54-39.35a13.82,13.82,0,0,1-.4-3.84l1.09-32.09s-4.94,4.95-19.05,3.53Z" fill="#2f2e41" data-secondary="true"/>
<path d="M249.48,508.46s-5.88,27.13-2.74,46.39c0,0-.45,19.48-2.46,21.72,0,0-2.91,3.58,0,6,0,0,19.7,11,27.09,1.34,0,0,0-37,10.08-59.79,0,0,2.46-5.38,1.79-14.33,0,0,2.69-.68,2.69-11.87,0,0,5.37-4.71,4.7-16.13,0,0,3.81-6.72,5.15-19.7,0,0,0-13.66,1.12-23.74,0,0,1.43-27.47-1.54-39.35a13.82,13.82,0,0,1-.4-3.84l1.09-32.09s-4.94,4.95-19.05,3.53Z" opacity="0.4"/>
<path d="M258.05,95.75c-.46-3.39.48-8.16,7.29-12,0,0,2-14.58,14.58-19.24,0,0,.58-3.2,6.7-4.08a23.4,23.4,0,0,1,10.05-4.08s9.47-4.66,15.88,0c0,0,5-5.53,14.87,5.25,0,0,9.9,3.49,11.07,8.74,0,0,15.45,6.7,10.78,16.61,0,0,11.08-2,13.12,21.27,0,0,1.45,16.62,7,21,0,0,10.49,5.53,7,16,0,0,4.38,12.54,2.34,22.73,0,0,7.78,21.57.54,29.73,0,0,2.94-16.61-4.19-25.94,0,0-8-5.24-8.59-11.07,0,0,8.44,32.35,8.59,39.05a51.72,51.72,0,0,0,1.31,20.11s-8.26-10.4-6.41-23.9c0,0-2.91,16.61-10.2,18.07,0,0-7.57-8.16-7.57-13.11,0,0,0,7.57-4.08,13.4,0,0,4.66,9,4.08,15.45a32.54,32.54,0,0,1-6.71-2.63s2,3.79,1.17,6.71a15.12,15.12,0,0,1-7-8.16l-4.38-5s6.12,10.78,5.54,13.12c0,0-2.91-4.38-6.12-6.42,0,0,1.17,11.37-4.95,13.12,0,0,3.2-9-.88-18.07,0,0-.29,18.07-3.79,20.11,0,0-7.57-7-7.86-16,0,0-2.63,3.5.58,12.53,0,0-5.25-.29-8.45-21.27L307,207.74s-1.57-14.11-8.51-21.28c0,0-3.36-14.33-9.85-21.27,0,0,8.1-5.69,6.72-10.3l-3.14-1.35s2.64-2.62,1.14-3.56c0,0,.65-11.22-4.72-17s-3.36-6.72-10.08-10.52c0,0-9-8.07-11.2-15.23,0,0-.5-2.85-5.5-5.86A7.78,7.78,0,0,1,258.05,95.75Z" fill="#2f2e41" data-secondary="true"/>
<rect x="420.53" y="31.97" width="330.11" height="601.8" rx="7.01" fill="#2f2e41" data-secondary="true"/>
<path d="M738.61,52.06V559.7a8.23,8.23,0,0,1-8.23,8.23H440.79a8.08,8.08,0,0,1-4-1,8.24,8.24,0,0,1-4.23-7.19V52.06Z" fill="#fff"/>
<rect x="436.78" y="133.96" width="297.61" height="49.39" fill="#ccc"/>
<rect x="436.78" y="187.58" width="297.61" height="49.39" fill="#ccc"/>
<rect x="436.78" y="241.19" width="297.61" height="49.39" fill="#ccc"/>
<rect x="436.78" y="296.91" width="297.61" height="98.78" fill="#ccc"/>
<rect x="436.57" y="404.87" width="297.61" height="98.78" fill="#ccc"/>
<rect x="432.56" y="74.02" width="306.05" height="55.72" fill="#d1d3d4"/>
<rect x="432.56" y="52.07" width="306.05" height="21.95" fill="#bcbec0"/>
<rect x="464.22" y="92.59" width="29.76" height="1.48" fill="#fff"/>
<rect x="464.22" y="101.14" width="29.76" height="1.48" fill="#fff"/>
<rect x="464.22" y="109.69" width="29.76" height="1.48" fill="#fff"/>
<rect x="533.24" y="94.13" width="174.77" height="15.51" rx="5.25" fill="#fff"/>
<circle cx="481.71" cy="160.22" r="9.89" opacity="0.2"/>
<rect x="534.19" y="152.93" width="182.68" height="14.56" rx="4.93" opacity="0.2"/>
<circle cx="480.98" cy="212.27" r="9.89" opacity="0.2"/>
<rect x="533.45" y="204.99" width="182.68" height="14.56" rx="4.93" opacity="0.2"/>
<circle cx="480.98" cy="265.88" r="9.89" opacity="0.2"/>
<circle cx="482.45" cy="346.3" r="29.26" opacity="0.2"/>
<rect x="533.45" y="258.6" width="78.62" height="14.56" rx="4.93" opacity="0.2"/>
<g opacity="0.2">
<rect x="533.45" y="322.02" width="105.53" height="10.13" rx="3.43"/>
<rect x="533.45" y="342.72" width="182.68" height="10.13" rx="3.43"/>
<rect x="533.45" y="360.45" width="182.68" height="10.13" rx="3.43"/>
</g>
<circle cx="481.61" cy="454.26" r="29.26" opacity="0.2"/>
<path d="M734.4,508v58.85a8.3,8.3,0,0,1-4,1H440.79a8.08,8.08,0,0,1-4-1V508Z" fill="#ccc"/>
<path d="M511.07,561.76a29.09,29.09,0,0,1-.65,6.17h-57.2a29.25,29.25,0,1,1,57.85-6.17Z" opacity="0.2"/>
<rect x="532.61" y="537.08" width="105.53" height="10.13" rx="3.43" opacity="0.2"/>
<rect x="532.61" y="557.79" width="182.68" height="10.13" rx="3.43" opacity="0.2"/>
<g opacity="0.2">
<rect x="532.61" y="429.98" width="105.53" height="10.13" rx="3.43"/>
<rect x="532.61" y="450.69" width="182.68" height="10.13" rx="3.43"/>
<rect x="532.61" y="468.42" width="182.68" height="10.13" rx="3.43"/>
</g>
<circle cx="585.59" cy="602.54" r="21.95" opacity="0.2"/>
<ellipse cx="314.85" cy="121.46" rx="35.97" ry="21.42" transform="translate(13.86 274.07) rotate(-47.98)" fill="#f9b499"/>
<ellipse cx="296.67" cy="103.33" rx="12.09" ry="7.72" transform="translate(69.08 319.87) rotate(-62.78)" fill="#f9b499"/>
<path d="M293.17,114.65s-3.66,4.41-1.87,9.11c0,0,2.47,7.84-2.68,9.18l-5.74-7.46L288,109.32A6.19,6.19,0,0,0,293.17,114.65Z" fill="#2f2e41" data-secondary="true"/>
<path d="M301.53,104.43s.52,7.32,9,0c0,0,2.24-2.94,6.95-1.1,0,0,18.66,1.13,21.42-8.59,0,0-.75,7,4.47,8.59l1-14.06L334.75,79,309,87,305.39,101Z" fill="#2f2e41" data-secondary="true"/>
<path d="M212,182.21s-1.79-7.17,2.46-9.85c0,0,9.63-14.56,10.08-19.71,0,0,7.17-11,26.2-12.09h5.6s4-7.84,8.06-7.62c0,0,10.53,0,14.56,8.51,0,0,9.45,8.55,14.35,8.53,0,0,.88,1.33-1.14,3.56l3.14,1.35s1.11,5.15-6.72,10.3c0,0,6.49,6.27,9.85,21.27,0,0,10.53,7.62,10.75,48.38,0,0,6.72,9.62,0,43.66,0,0,.45,19.49-6.49,27.55,0,0,4.47,2.91,1.56,30.23,0,0,1.57,25.75-13.88,29.79,0,0-18.14,3.58-22.4-4.93,0,0-13.66-18.59-21.49-11.87,0,0-23.29,9-31.8-.67,0,0-9-5.38-3.07-6.27,0,0-11.49-15.9-5.67-40.31v-2.78a30.33,30.33,0,0,1,1.85-9.59,4.77,4.77,0,0,0-.21-3.6,29.59,29.59,0,0,1-3-9.85c-1-11.62-2.53-34.23-.33-40.47C204.34,235.73,204.64,186.24,212,182.21Z" fill="#0071f2" data-primary="true"/>
<path d="M242.71,188.7s-4.26-31.35,18.59-36.28c0,0,17.46-2.68,19.93,13.89a61.39,61.39,0,0,1-.52,15,57.06,57.06,0,0,0-.17,15.93c.21,1.47.46,3,.77,4.41a81.82,81.82,0,0,1,2,15.65c.22,11.53-.16,28.67-4.28,30.29,0,0,6.27,3.81,8.06,7.17,0,0,2.69-3.14,4.7,0,0,0,4.48-3.81,10.53,0,0,0,10.75-6.72,14.78,1.12h11.42s1.12-6.27,6-2.92c0,0,6.05-5.37,11.87-5.37,0,0,7.39,3.36,7.17,13.44,0,0-1.57,11.19-9,13.43,0,0-8.28,2-9.85,4.71,0,0-7.84,6.62-16,5.87a30.44,30.44,0,0,0-7.51.17c-6.83,1.09-22.27,2.3-48.76-1.93a35.72,35.72,0,0,1-6.93-1.88,14.88,14.88,0,0,0-5.8-1,9.35,9.35,0,0,1-6.84-2.23,6.42,6.42,0,0,1-2.23-5.06,74.24,74.24,0,0,0-3.32-10.66,48.79,48.79,0,0,1-3.46-21c.38-7.74.92-17.06,1.6-23.63a49.61,49.61,0,0,1,2.43-11.09C239.78,201.41,242.92,191.71,242.71,188.7Z" fill="#0071f2" data-primary="true"/>
<path d="M242.71,188.7s-4.26-31.35,18.59-36.28c0,0,17.46-2.68,19.93,13.89a61.39,61.39,0,0,1-.52,15,57.06,57.06,0,0,0-.17,15.93c.21,1.47.46,3,.77,4.41a81.82,81.82,0,0,1,2,15.65c.22,11.53-.16,28.67-4.28,30.29,0,0,6.27,3.81,8.06,7.17,0,0,2.69-3.14,4.7,0,0,0,4.48-3.81,10.53,0,0,0,10.75-6.72,14.78,1.12h11.42s1.12-6.27,6-2.92c0,0,6.05-5.37,11.87-5.37,0,0,7.39,3.36,7.17,13.44,0,0-1.57,11.19-9,13.43,0,0-8.28,2-9.85,4.71,0,0-7.84,6.62-16,5.87a30.44,30.44,0,0,0-7.51.17c-6.83,1.09-22.27,2.3-48.76-1.93a35.72,35.72,0,0,1-6.93-1.88,14.88,14.88,0,0,0-5.8-1,9.35,9.35,0,0,1-6.84-2.23,6.42,6.42,0,0,1-2.23-5.06,74.24,74.24,0,0,0-3.32-10.66,48.79,48.79,0,0,1-3.46-21c.38-7.74.92-17.06,1.6-23.63a49.61,49.61,0,0,1,2.43-11.09C239.78,201.41,242.92,191.71,242.71,188.7Z" opacity="0.2"/>
<path d="M214.72,348.6A98.54,98.54,0,0,0,223.13,377a8.74,8.74,0,0,1,.82,3.36c.34,9.5,2.7,55.89,16.52,82.93,0,0-3.58,2.46-2,6,0,0-5.82-2-4.92,4.26,0,0-4.26.89-4.26,4.7,0,0-33.81,23.21-41.87,35.31,0,0-22.25,24.63-27.18,29,0,0-4.18,11.8,7.77,17.77a21.06,21.06,0,0,0,13.13,3.13l3.29-5.07s21.8-18.07,25.83-23.44c0,0,56-36.88,65.09-45.54,0,0,4.48-7.91,3.58-15.52l.12-5.23s5.26-30.31,3.91-44.79c0,0,1.21-39.95,5.24-57.62,0,0-10.81,1.79-17.15-1.84a18.17,18.17,0,0,1-3-3.24s-9.83-13.38-17.45-13.33c0,0-2.7,0-4,1.46C246.52,349.27,224.51,357.28,214.72,348.6Z" fill="#2f2e41" data-secondary="true"/>
<path d="M129.84,553.5s-7.84-2.68-8.28,9.75c0,0-.45,18.92,11.87,31.68a17.42,17.42,0,0,1,2.46,9.18s-.9,8.74,5.15,12.55c0,0,4.48,7.16,5.15,11.86s3.58,7,7.17,8.29c0,0,10.75,8.73,18.81,9.63a7.88,7.88,0,0,0,2.71-4.09c2.53-7.36-.4-14.39-1.15-15.84a123.49,123.49,0,0,1-2-31.8s2.91-4,2.24-6.79c0,0,10.3-3.14,8.73-13.81,0,0-3.36-8.07-6.94.22a4.48,4.48,0,0,0-4.48.45s-14.33-7.62-16.79-3.58c0,0-3.14,2.91,1.79,7.83l-4.07-.12s-8.58-5.35-7.41-12.46c0,0-.32-1.06,2.73-4.05a8.74,8.74,0,0,0,2-3.06c.89-2.3,1.83-6-.23-8.08,0,0-2-2.23-.45-3.8C148.88,547.46,136.11,547.23,129.84,553.5Z" fill="#0071f2" data-primary="true"/>
<path d="M271.37,584s8.37.13,8.19,11.65c0,0,3.85,2.24,3.85,5.21l7.53,6.13s4.73-1.22,5.25,3c0,0,5.61.88,6,4.55,0,0,4.55,0,5.43,2.28,0,0,11.9-3.15,14.53,7.18,0,0,3.5,7.7-3.5,10.15,0,0-4.05-.23-6,1.09a12.56,12.56,0,0,1-4.09,2c-4.5,1.05-12.75,2.51-17.19.42,0,0-9.09-1.36-14.49-4-3.12-1.49-9.8.77-9.85.8q-6.45,0-13.42-.3-7.12-.33-13.72-.92a14.21,14.21,0,0,1-3.91-1.51c-2-1-3.88-2.61-3.79-4.8,0,0,.52-23.46,5.78-27.49,0,0-.18-7,4.37-2.62,0,0,4.91.87,4.91,7,0,0,.17,4.53,5.43,4.8,0,0,7.35.63,10.33-8.48,0,0,3.85-3.85,8.58-2.62,0,0-5-2.35-3.48-10.81A7.25,7.25,0,0,0,271.37,584Z" fill="#0071f2" data-primary="true"/>
<path d="M228,149s-11.56-2.41-9.07-20.47c0,0,2-26.42,42.94-27.21l3.92,3.16s4.39,11.7,12.78,17.93c0,0,6.16,2.33,10.08,10.52,0,0,5.71,5.07,4.72,17,0,0-5.52.23-14.35-8.53,0,0-3.44-8.68-15.89-8.51a21.48,21.48,0,0,0-6.73,7.62S238.7,139.19,228,149Z" fill="#0071f2" data-primary="true"/>
<path d="M348.41,248.94c-.49-.4,3.35-2.83,9.63-2.29,0,0,7-.59,12-4.06,0,0,3.76-2.94,5.92,1.36,0,0-1.08,6.28-8.61,7.36,0,0-9.33.18-10.23,3.59l9,.89s5.74,1.08,6.82-.89l6.1-4s-.36,9.15-6.82,11.66c0,0,0,4.31-10.23,7.18a21.06,21.06,0,0,0-2.11,1.29,11.43,11.43,0,0,1-9.34,2,6.45,6.45,0,0,1-2.12-.89,22.3,22.3,0,0,0,4.88-9.75S354.89,254.2,348.41,248.94Z" fill="#f9b499"/>
<polygon points="393.92 230.68 395.17 232.83 375.5 245.44 375.03 242.59 393.92 230.68" fill="#2f2e41" data-secondary="true"/>
<path d="M372.93,254.9l21.74-15.12a3.85,3.85,0,0,0,1.41-4.54l-.91-2.41L375.5,245.44s-1.3,4.84-8.13,5.87c0,0-8.61-.18-10.23,3.59l12,1.19A6.94,6.94,0,0,0,372.93,254.9Z" fill="#2f2e41" data-secondary="true"/>
</svg>